<svg xmlns="http://www.w3.org/2000/svg" width="154" height="36" viewBox="0 0 154 36" fill="none"><g clip-path="url(#clip0_833_4011)"><path d="M23.4856 27.047H9.62378L6.01633 34.9143H0.750977L16.7696 0.497681L32.2279 34.9067H26.8782L23.478 27.0394L23.4856 27.047ZM21.49 22.4494L16.6852 11.4429L11.6501 22.4494H21.4823H21.49Z" fill="#F47C20"></path><path d="M35.375 14.4823H40.0954V16.3091C40.9627 15.4034 41.7303 14.7816 42.4057 14.4439C43.0888 14.0909 43.9024 13.922 44.8388 13.922C46.0822 13.922 47.3794 14.3288 48.7379 15.1347L46.5811 19.456C45.6831 18.8113 44.8158 18.4889 43.9561 18.4889C41.3849 18.4889 40.0954 20.4308 40.0954 24.3222V34.9143H35.375V14.49V14.4823Z" fill="#F47C20"></path><path d="M66.9519 15.3654V21.6362C65.8774 20.3237 64.9103 19.418 64.0583 18.9345C63.2217 18.4279 62.2315 18.1823 61.1033 18.1823C59.3302 18.1823 57.8565 18.804 56.6822 20.0474C55.5079 21.2908 54.9245 22.8489 54.9245 24.7218C54.9245 26.5946 55.4925 28.2064 56.6208 29.4421C57.7644 30.6702 59.2305 31.2843 61.0035 31.2843C62.1394 31.2843 63.1373 31.0386 64.0046 30.5474C64.8412 30.0715 65.8313 29.1505 66.9596 27.7766V34.0014C65.0408 34.9915 63.1296 35.4904 61.2107 35.4904C58.0484 35.4904 55.4081 34.4696 53.282 32.4279C51.1559 30.3709 50.0967 27.8226 50.0967 24.7755C50.0967 21.7283 51.1712 19.1571 53.328 17.0617C55.4772 14.9663 58.1252 13.9147 61.2568 13.9147C63.2677 13.9147 65.1712 14.3983 66.9596 15.3577L66.9519 15.3654Z" fill="#F47C20"></path><path d="M91.4436 27.047H77.5818L73.9743 34.9143H68.709L84.7353 0.497681L100.194 34.9067H94.8439L91.4436 27.0394V27.047ZM89.4557 22.4494L84.6509 11.4429L79.6158 22.4494H89.448H89.4557Z" fill="#F1F1F1"></path><path d="M108.684 18.8886V34.9072H103.963V18.8886H101.952V14.4829H103.963V6.99933H108.684V14.4829H112.352V18.8886H108.684Z" fill="#F1F1F1"></path><path d="M120.427 18.8886V34.9072H115.706V18.8886H113.695V14.4829H115.706V6.99933H120.427V14.4829H124.096V18.8886H120.427Z" fill="#F1F1F1"></path><path d="M126.59 5.99272C126.59 5.17145 126.889 4.45763 127.488 3.85127C128.087 3.25259 128.808 2.95325 129.645 2.95325C130.481 2.95325 131.226 3.25259 131.824 3.85127C132.423 4.44228 132.723 5.1561 132.723 6.00807C132.723 6.86005 132.423 7.58921 131.824 8.1879C131.241 8.78658 130.52 9.08592 129.668 9.08592C128.816 9.08592 128.087 8.78658 127.488 8.1879C126.889 7.58921 126.59 6.85237 126.59 5.98505V5.99272ZM132.024 14.4818V34.9061H127.304V14.4818H132.024Z" fill="#F1F1F1"></path><path d="M153.891 15.3654V21.6362C152.817 20.3237 151.85 19.418 150.998 18.9345C150.161 18.4279 149.171 18.1823 148.043 18.1823C146.27 18.1823 144.796 18.804 143.622 20.0474C142.447 21.2908 141.864 22.8489 141.864 24.7218C141.864 26.5946 142.432 28.2064 143.56 29.4421C144.704 30.6702 146.17 31.2843 147.943 31.2843C149.079 31.2843 150.077 31.0386 150.944 30.5474C151.781 30.0715 152.771 29.1505 153.899 27.7766V34.0014C151.98 34.9915 150.069 35.4904 148.15 35.4904C144.988 35.4904 142.348 34.4696 140.221 32.4279C138.095 30.3709 137.036 27.8226 137.036 24.7755C137.036 21.7283 138.111 19.1571 140.267 17.0617C142.417 14.9663 145.065 13.9147 148.196 13.9147C150.207 13.9147 152.111 14.3983 153.899 15.3577L153.891 15.3654Z" fill="#F1F1F1"></path></g><defs><clipPath id="clip0_833_4011"><rect width="153.14" height="35" fill="white" transform="translate(0.75 0.5)"></rect></clipPath></defs></svg>